<svg xmlns="http://www.w3.org/2000/svg" width="70" height="50" viewBox="0 0 98 35">
  <rect y="-50%" rx="16" height="70" width="98" fill="#caeaff" />
  <path x="10" transform="translate(14, 6)"
    d="M14.446 0H0v23h14.446c5.014 0 9.091-3.984 9.091-8.883V8.883C23.538 3.984 19.46 0 14.446 0zm3.171 14.117c0 1.708-1.421 3.099-3.17 3.099h-8.53V5.783h8.529c1.748 0 3.17 1.388 3.17 3.1v5.234zm7.591-8.334h8.264v17.169h5.918V5.783h8.264V0H25.208M70 5.783V0H50.889v22.952h5.918V16.19h9.982v-5.78h-9.982V5.783">
  </path>
</svg>
